<?xml version="1.0" encoding="UTF-8" standalone="no"?>
<!DOCTYPE svg PUBLIC "-//W3C//DTD SVG 1.1//EN" "http://www.w3.org/Graphics/SVG/1.1/DTD/svg11.dtd">
<svg version="1.1" xmlns="http://www.w3.org/2000/svg" xmlns:xlink="http://www.w3.org/1999/xlink" preserveAspectRatio="xMidYMid meet" viewBox="0 0 640 400" width="640" height="640">
  <defs>
    <path d="M399.34 260L519.11 40L279.55 40L40 40L159.77 260L279.55 480L399.34 260Z" id="b1JDbq0Qht"></path>
    <path d="M507.45 210.96L600 40L414.89 40L229.78 40L322.32 210.96L414.89 381.93L507.45 210.96Z" id="e1D861sgt1"></path>
    <path d="M414.89 381.93L229.78 40L414.89 40L414.89 381.93Z" id="c2ufYZ9z"></path>
    <path d="M279.56 480L40 40L279.56 40L279.56 480Z" id="b1lDymyXbd"></path>
    <path d="M446.78 173.4L519.11 40L374.44 40L229.78 40L302.1 173.4L374.44 306.79L446.78 173.4Z" id="b51cKbnDe"></path>
    <path d="M374.44 306.79L229.78 40L374.44 40L374.44 306.79Z" id="b29BvTnmDC"></path>
  </defs>
  <g>
    <g>
      <g>
        <g>
          <use xlink:href="#b1JDbq0Qht" opacity="1" fill="#9dd955" fill-opacity="1"></use>
        </g>
        <g>
          <use xlink:href="#e1D861sgt1" opacity="1" fill="#d4d4d4" fill-opacity="1"></use>
        </g>
        <g>
          <use xlink:href="#c2ufYZ9z" opacity="1" fill="#f9f9f9" fill-opacity="1"></use>
        </g>
        <g>
          <use xlink:href="#b1lDymyXbd" opacity="1" fill="#B9FF66" fill-opacity="1"></use>
        </g>
        <g>
          <use xlink:href="#b51cKbnDe" opacity="1" fill="#000000" fill-opacity="1"></use>
        </g>
        <g>
          <use xlink:href="#b29BvTnmDC" opacity="1" fill="#282828" fill-opacity="1"></use>
        </g>
      </g>
    </g>
  </g>
</svg>